<svg width="500" height="200" viewBox="0 0 500 200" xmlns="http://www.w3.org/2000/svg">
  <!-- Definícia gradientu pre kovový vzhľad -->
  <defs>
    <linearGradient id="metalGradient" x1="0%" y1="0%" x2="0%" y2="100%">
      <stop offset="0%" style="stop-color:#b8b0a8;stop-opacity:1" />
      <stop offset="50%" style="stop-color:#968d85;stop-opacity:1" />
      <stop offset="100%" style="stop-color:#7a726b;stop-opacity:1" />
    </linearGradient>
  </defs>

  <!-- Ozubené koleso -->
  <path d="M80,65 L84,55 L94,55 L98,65 L108,68 L115,62 L122,69 L116,79 L119,89 L129,93 L129,103 L119,107 L116,117 L122,127 L115,134 L105,128 L95,131 L91,141 L81,141 L77,131 L67,128 L57,134 L50,127 L56,117 L53,107 L43,103 L43,93 L53,89 L56,79 L50,69 L57,62 L67,68 Z" fill="url(#metalGradient)" />
  <circle cx="86" cy="98" r="18" fill="white" />

  <!-- Text BGD -->
  <text x="150" y="125" font-family="Arial, Helvetica, sans-serif" font-weight="bold" font-size="85" fill="url(#metalGradient)" letter-spacing="-2">BGD</text>

  <!-- Text BIKE GEAR DECODER -->
  <text x="80" y="165" font-family="Arial, Helvetica, sans-serif" font-size="22" fill="#b8b0a8" letter-spacing="6">BIKE GEAR DECODER</text>
</svg>